<svg xmlns="http://www.w3.org/2000/svg" xmlns:xlink="http://www.w3.org/1999/xlink" width="14" height="16" version="1.1" viewBox="0 0 14 16"><title>Shape Copy</title><desc>Created with Sketch.</desc><g id="Profile" fill="none" fill-rule="evenodd" stroke="none" stroke-width="1"><g id="Profile---landing" fill="#4A90E2" transform="translate(-160.000000, -1176.000000)"><g id="sidebar" transform="translate(61.000000, 676.000000)"><g id="interventions" transform="translate(0.000000, 350.000000)"><g id="xblock" transform="translate(1.000000, 47.000000)"><g id="July-21,-2015----+-Add-end-date-+-Shape-Copy" transform="translate(0.000000, 102.000000)"><path id="Shape-Copy" d="M108.888889,9.8 L105,9.8 L105,13.8 L108.888889,13.8 L108.888889,9.8 L108.888889,9.8 Z M108.111111,1 L108.111111,2.6 L101.888889,2.6 L101.888889,1 L100.333333,1 L100.333333,2.6 L99.5555556,2.6 C98.7,2.6 98,3.32 98,4.2 L98,15.4 C98,16.28 98.7,17 99.5555556,17 L110.444444,17 C111.3,17 112,16.28 112,15.4 L112,4.2 C112,3.32 111.3,2.6 110.444444,2.6 L109.666667,2.6 L109.666667,1 L108.111111,1 L108.111111,1 Z M110.444444,15.4 L99.5555556,15.4 L99.5555556,6.6 L110.444444,6.6 L110.444444,15.4 L110.444444,15.4 Z"/></g></g></g></g></g></g></svg>